<?xml version="1.0" encoding="utf-8"?>
<!-- Generator: Adobe Illustrator 16.0.3, SVG Export Plug-In . SVG Version: 6.00 Build 0)  -->
<!DOCTYPE svg PUBLIC "-//W3C//DTD SVG 1.1//EN" "http://www.w3.org/Graphics/SVG/1.1/DTD/svg11.dtd">
<svg version="1.1" id="Layer_1" xmlns="http://www.w3.org/2000/svg" xmlns:xlink="http://www.w3.org/1999/xlink" x="0px" y="0px"
	 width="323.983px" height="157.451px" viewBox="369.545 0 323.983 157.451" enable-background="new 369.545 0 323.983 157.451"
	 xml:space="preserve">
<g>
	<path fill="#FCD050" d="M425.346,24.736c-8.061,0.126-15.695-1.501-22.747-5.524c-1.647-0.761-3.159-1.729-4.506-2.948
		c-0.434-0.051-0.637-0.71-1.091-0.523c-0.365,0.15-0.015,0.575-0.076,0.871c1.424,6.444,3.528,12.619,7.228,18.158
		c1.488,1.786,2.976,3.571,4.466,5.357c0.609,0.592,1.221,1.185,1.831,1.777c1.363,1.064,2.727,2.129,4.088,3.195
		c5.002,3.188,10.333,5.664,16.006,7.396c1.535,0.469,3.087,0.874,4.908,1.388c-2.123,1.708-4.215,2.521-6.644,2.432
		c-1.687,0.121-3.37,0.219-4.959-0.55c-0.762,0.231-1.464,0.057-2.139-0.311c-3.812-0.708-7.316-2.246-10.735-3.996
		c-1.77-0.905-3.49-1.905-5.232-2.86c0.403,1.946,0.807,3.896,1.208,5.842c0.776,2.033,1.555,4.065,2.33,6.099
		c2.148,4.212,4.926,7.921,8.673,10.853c0.92,0.594,1.839,1.188,2.759,1.779c2.037,0.836,4.12,1.539,6.257,2.082
		c0.451,0.063,0.9,0.127,1.353,0.188c2.241-0.033,4.485,0.01,6.71-0.342c1.256-0.395,2.563-0.459,3.853-0.447
		c3.242,0.033,5.414,1.443,6.271,3.945c1.374,4.02-1.326,8.521-5.8,9.664c-0.349,0.061-0.697,0.119-1.046,0.18
		c-0.088,0-0.176,0.004-0.264,0.008c-2.089,0.314-4.063-0.051-5.933-1.018c-0.812-0.305-1.623-0.609-2.531-0.951
		c0.156,0.611,0.273,1.07,0.392,1.529c1.008,1.951,2.017,3.902,3.024,5.854c2.701,3.764,5.894,7.084,9.231,10.275
		c3.728,3.027,7.446,6.066,11.445,8.74c2.732,1.828,5.496,3.613,8.246,5.422c0.481,0.1,0.892,0.33,1.227,0.689
		c0.596,0.291,1.19,0.582,1.786,0.873c0.113-0.434-0.138-0.715-0.406-0.998c-1.981-2.092-3.54-4.494-5.034-6.939
		c-0.596-0.977-1.303-1.803-2.188-2.549c-5.199-4.385-10.422-8.744-15.047-13.762c-0.731-0.793-0.804-1.189,0.342-1.479
		c2.146-0.543,3.917-1.762,5.588-3.162c1.611-1.354,2.519-2.816,2.144-5.141c-0.528-3.297-0.582-6.664-0.314-10.014
		c0.104-1.277-0.415-2.109-1.423-2.873c-3.271-2.477-6.97-3.099-10.891-2.522c-2.461,0.359-4.911,0.804-7.39,0.52
		c-6.386-0.73-10.426-4.753-13.579-9.937c-0.155-0.253-0.266-0.683-0.155-0.914c0.183-0.383,0.555-0.115,0.85-0.009
		c2.345,0.847,4.761,1.437,7.213,1.847c6.267,1.047,12.188,0.721,16.823-4.441c1.693-1.888,3.389-3.775,5.206-5.803
		c-2.916-0.778-5.5-1.542-8.121-2.155c-8.639-2.021-16.715-5.216-23.407-11.246c-3.38-3.045-6.029-6.663-8.133-11.23
		c3.187,1.56,6.235,2.172,9.287,2.788c4.887,0.984,9.813,1.271,14.784,0.919c4.267-0.306,8.428-1.146,12.5-2.423
		c0.615-0.192,0.952-0.04,1.387,0.423c1.033,1.104,1.756,2.473,2.993,3.406c4.176,3.149,8.686,4.803,14.035,3.752
		c2.938-0.576,6.413-2.977,7.448-6.413c0.894-2.96,0.237-5.55-1.298-8.015c-0.696-1.119-0.479-1.604,0.754-1.808
		c0.32-0.052,0.624-0.207,0.942-0.242c6.518-0.724,13.011-0.447,19.5,0.415c1.491,0.199,3.021,0.892,4.473,0.496
		c3.867-1.05-11.421-2.173-7.51-2.897c4.009-0.743,7.232,0.981,10.617,2.44l-0.001-0.002c0.132,0.033,0.264,0.066,0.396,0.1
		c1.825,0.206,3.613,0.729,5.476,0.627c-0.719-0.313-1.436-0.625-2.151-0.938c-1.596-0.39-3.167-0.857-4.67-1.532
		c-1.054-0.189-2.071-0.493-3.046-0.94c-4.933-1.371,9.354-1.854,4.35-2.927c-2.179-0.354-4.354-0.71-6.533-1.063
		c-0.226-0.029-0.452-0.061-0.678-0.091c-2.336-0.179-4.673-0.356-7.009-0.534c-4.518-0.063-9.022,0.091-13.51,0.636
		c-2.155,0.392-4.311,0.783-6.465,1.174c-2.069,0.659-4.14,1.32-6.209,1.98c-0.384,0.479-1.604,0.058-1.33,1.24
		c2.604,1.479,4.967,3.242,6.586,5.823c1.456,2.322,1.046,4.418-1.058,5.688c-2.134,1.471-4.407,1.198-6.711,0.532
		c-1.985-0.41-3.668-1.352-5.025-2.861c-1.785-1.521-2.94-3.431-3.538-5.689c-0.23-0.679-0.729-0.471-1.195-0.357
		c-0.396,0.156-0.791,0.312-1.186,0.467c-0.114,0.215-0.269,0.335-0.521,0.227c-1.255,0.813-2.691,1.124-4.106,1.5
		c-2.213,0.614-4.426,1.231-6.74,1.326c-2.092,0.556-4.231,0.502-6.365,0.538c-0.106-0.026-0.212-0.053-0.317-0.079L425.346,24.736z
		"/>
	<path fill="#F1BA32" d="M474.856,125.394c-3.834-3.354-11.854-5.975-10.592-10.939c6.134-24.111,2.574-35.275,16.086-55.529
		c8.12-12.173,10.146-22.051,14.93-36.204c6.284-1.816-6.514-3.221,0.035-2.811c0.533,0.034,1.072-0.01,1.607-0.016
		c-3.386-1.459-6.608-3.185-10.617-2.44c-3.911,0.726,11.377,1.849,7.51,2.897c-1.452,0.396-2.981-0.297-4.473-0.496
		c-6.489-0.862-12.982-1.139-19.5-0.415c-0.318,0.035-0.622,0.19-0.942,0.242c-1.233,0.203-1.45,0.688-0.754,1.808
		c1.535,2.466,2.189,5.055,1.298,8.015c-1.035,3.438-4.512,5.837-7.448,6.413c-5.351,1.051-9.859-0.603-14.036-3.752
		c-1.236-0.935-1.96-2.303-2.992-3.406c-0.435-0.463-0.771-0.615-1.387-0.423c-4.072,1.277-8.233,2.117-12.501,2.423
		c-4.97,0.354-9.896,0.065-14.784-0.919c-3.051-0.616-6.101-1.229-9.286-2.788c2.104,4.567,4.753,8.187,8.133,11.23
		c6.691,6.03,14.77,9.226,23.407,11.246c2.62,0.613,5.204,1.377,8.12,2.155c-1.816,2.026-3.512,3.915-5.206,5.803
		c-4.636,5.162-10.557,5.488-16.822,4.441c-2.452-0.41-4.868-1-7.213-1.847c-0.295-0.106-0.667-0.374-0.85,0.009
		c-0.109,0.231,0,0.661,0.155,0.914c3.153,5.184,7.193,9.205,13.579,9.937c2.478,0.284,4.929-0.159,7.39-0.52
		c3.92-0.576,7.619,0.046,10.891,2.522c1.008,0.764,1.525,1.596,1.423,2.873c-0.269,3.35-0.214,6.717,0.314,10.014
		c0.374,2.324-0.531,3.787-2.144,5.141c-1.671,1.4-3.44,2.619-5.588,3.162c-1.146,0.289-1.073,0.686-0.343,1.479
		c4.625,5.018,9.849,9.377,15.048,13.762c0.886,0.746,1.593,1.572,2.188,2.549c1.494,2.445,3.052,4.85,5.034,6.939
		c0.269,0.283,0.52,0.564,0.406,0.998c0-0.002,0.073-0.039,0.073-0.039c0.415-0.18,0.503,0.117,0.599,0.408
		c1.423,0.885,2.845,1.77,4.269,2.654c0.603,0.352,1.203,0.701,1.806,1.053C472.822,124.238,473.643,125.242,474.856,125.394z"/>
	<path fill="#F1BA32" d="M496.921,19.895c0.097,0.176,0.234,0.181,0.396,0.1C497.185,19.962,497.053,19.928,496.921,19.895z"/>
	<path fill="#F1BA32" d="M474.836,125.369c0.13,0.537,0.566,0.654,1.024,0.744C475.574,125.787,475.283,125.469,474.836,125.369z"/>
	<path fill="#FCD050" d="M465.008,119.824c0.114,0.258,0.316,0.393,0.598,0.408C465.51,119.941,465.423,119.644,465.008,119.824z"/>
</g>
<path fill="#CEAE6C" d="M453.454,132.338h207.917L501.231,6.359C501.232,6.358,448.988,52.86,453.454,132.338z"/>
<image overflow="visible" enable-background="new    " width="513" height="513" xlink:href="7C920B65.jpeg"  transform="matrix(0.9981 0 0 0.9981 -8121 -8957.4043)">
</image>
<path fill="#F1CD7C" d="M478.96,132.338h183.224L521.063,21.321C521.063,21.321,475.025,62.299,478.96,132.338z"/>
<circle fill="#DD4849" cx="557.326" cy="105.154" r="13.709"/>
<circle fill="#DD4849" cx="508.624" cy="77.655" r="12.552"/>
<path fill="#3E2723" d="M533.4,49.659c-3.201,4.323-9.341,5.262-13.688,2.09c-4.373-3.194-5.336-9.354-2.144-13.729
	c3.24-4.377,9.382-5.315,13.729-2.143c2.119,1.546,3.51,3.825,3.914,6.42c0.403,2.593-0.225,5.188-1.771,7.308L533.4,49.659z
	 M520.989,40.473c-1.845,2.53-1.295,6.049,1.204,7.875c2.483,1.812,5.992,1.276,7.821-1.193l1.69,1.252l-1.668-1.282
	c0.883-1.213,1.243-2.694,1.013-4.179c-0.23-1.481-1.025-2.785-2.235-3.667C526.33,37.465,522.819,38.003,520.989,40.473z"/>
<path fill="#3E2723" d="M582.638,105.209c-5.417,0-9.825-4.407-9.825-9.824s4.407-9.824,9.825-9.824
	c5.417,0,9.824,4.407,9.824,9.824S588.055,105.209,582.638,105.209z M582.638,89.771c-3.096,0-5.615,2.518-5.615,5.613
	s2.519,5.613,5.615,5.613c3.095,0,5.614-2.518,5.614-5.613S585.734,89.771,582.638,89.771z"/>
<path fill="#20955E" d="M557.144,80.229c-0.496-0.277-12.146-6.927-12.438-19.122l5.893-0.141
	c0.212,8.869,9.329,14.064,9.421,14.117L557.144,80.229z"/>
<path fill="#20955E" d="M534.982,93.297c-8.78,0.607-13.634,9.963-13.685,10.055l-5.267-2.65
	c0.252-0.508,6.371-12.441,18.543-13.283L534.982,93.297z"/>
<path fill="#CE5727" d="M538.773,119.64c-0.521,0.225-12.888,5.418-22.741-1.773l3.473-4.762c7.111,5.189,16.848,1.16,16.945,1.119
	L538.773,119.64z"/>
<path fill="#CE5727" d="M484.722,108.576c0.246-0.512,6.175-12.543,18.329-13.576l0.501,5.869
	c-8.771,0.748-13.479,10.176-13.523,10.271L484.722,108.576z"/>
<path fill="#CE5727" d="M611.9,109.17c-0.522,0.227-12.889,5.418-22.742-1.773l3.477-4.762c7.166,5.23,16.84,1.162,16.936,1.121
	L611.9,109.17z"/>
<path fill="#DC8627" d="M526.074,63.586c0.563,0.074,13.838,1.97,18.603,13.197l-5.426,2.303
	c-3.438-8.102-13.859-9.643-13.964-9.658L526.074,63.586z"/>
<g>
	<text transform="matrix(1 0 0 1 1184.5496 -203.5706)" fill="#3E2723" font-family="'MyriadPro-Regular'" font-size="38">font:KG Skinny Latte</text>
</g>
<g>
	<path fill="#20150B" d="M499.082,149.48c-9.532,0-17.288-7.754-17.288-17.287s7.756-17.287,17.288-17.287
		c9.533,0,17.288,7.754,17.288,17.287S508.615,149.48,499.082,149.48z"/>
	<g>
		<path fill="#DD4849" d="M499.082,117.199c8.28,0,14.994,6.713,14.994,14.994s-6.714,14.994-14.994,14.994
			c-8.279,0-14.993-6.713-14.993-14.994S490.802,117.199,499.082,117.199 M499.082,112.611c-10.798,0-19.582,8.785-19.582,19.582
			s8.784,19.582,19.582,19.582c10.799,0,19.582-8.785,19.582-19.582S509.88,112.611,499.082,112.611L499.082,112.611z"/>
	</g>
</g>
<g>
	<path fill="#20150B" d="M593.387,149.48c-9.532,0-17.287-7.754-17.287-17.287s7.755-17.287,17.287-17.287
		c9.533,0,17.289,7.754,17.289,17.287S602.92,149.48,593.387,149.48z"/>
	<g>
		<path fill="#DD4849" d="M593.387,117.199c8.28,0,14.995,6.713,14.995,14.994s-6.715,14.994-14.995,14.994
			s-14.993-6.713-14.993-14.994S585.107,117.199,593.387,117.199 M593.387,112.611c-10.797,0-19.582,8.785-19.582,19.582
			s8.785,19.582,19.582,19.582c10.799,0,19.584-8.785,19.584-19.582S604.186,112.611,593.387,112.611L593.387,112.611z"/>
	</g>
</g>
<rect x="939.895" y="-264.007" fill="#F1CD7C" width="52.106" height="52.106"/>
<rect x="992.002" y="-264.007" fill="#CEAE6C" width="52.105" height="52.106"/>
<rect x="1044.107" y="-264.007" fill="#AF935B" width="52.106" height="52.106"/>
<rect x="1096.215" y="-264.007" fill="#CE5727" width="52.105" height="52.106"/>
<rect x="939.895" y="-211.9" fill="#20955E" width="52.106" height="52.105"/>
<rect x="992.002" y="-211.9" fill="#3E2723" width="52.105" height="52.105"/>
<rect x="1044.107" y="-211.9" fill="#DD4849" width="52.106" height="52.105"/>
<text transform="matrix(1 0 0 1 941.8953 -249.3499)" font-family="'NexaLight'" font-size="10.7671">#FFCC66</text>
<text transform="matrix(1 0 0 1 993.8953 -249.3499)" font-family="'NexaLight'" font-size="10.7671">#CC9966</text>
<text transform="matrix(1 0 0 1 1045.6453 -249.3499)" font-family="'NexaLight'" font-size="10.7671">#999966</text>
<text transform="matrix(1 0 0 1 941.8953 -190.5999)" font-family="'NexaLight'" font-size="10.7671">#339966</text>
<text transform="matrix(1 0 0 1 993.8953 -190.5999)" font-family="'NexaLight'" font-size="10.7671">#333333</text>
<text transform="matrix(1 0 0 1 1045.6453 -190.5999)" font-family="'NexaLight'" font-size="10.7671">#CC3333</text>
<text transform="matrix(1 0 0 1 1097.8953 -249.3499)" font-family="'NexaLight'" font-size="10.7671">#CC6633</text>
</svg>
